<svg width="808" height="207" viewBox="0 0 808 207" fill="none" xmlns="http://www.w3.org/2000/svg">
<path d="M0 17.1697H180.003L186.524 38.3622C191.449 54.3686 177.265 69.7328 160.916 66.0998L155.071 64.8008C144.434 62.437 134.344 70.5312 134.344 81.4276C134.344 92.7706 123.464 100.944 112.569 97.7866L95.4092 92.8126C82.5449 89.0838 68.7545 94.1972 61.4309 105.411L60.6764 106.567C52.017 119.826 35.0255 124.858 20.5423 118.452L0 109.366V17.1697Z" fill="#DA7F88"/>
<path d="M793.769 206.345H613.766L607.245 185.152C602.32 169.146 616.504 153.782 632.852 157.415L638.698 158.714C649.335 161.077 659.425 152.983 659.425 142.087C659.425 130.744 670.304 122.57 681.199 125.728L698.359 130.702C711.224 134.431 725.014 129.317 732.338 118.103L733.092 116.948C741.752 103.688 758.743 98.6561 773.226 105.062L793.769 114.148V206.345Z" fill="#FF751F"/>
<path d="M156.686 138.206V131.906H150.316V99.5657H156.686V93.1957H176.426V99.5657H182.866V112.866H176.426V118.466H182.866V131.906H176.426V138.206H156.686ZM157.386 131.206H175.726V119.166H162.986V112.236H175.726V100.266H157.386V131.206ZM197.701 150.876V144.576H191.331V137.576H198.401V143.876H216.811V131.906H197.701V125.536H191.331V105.866H198.401V124.836H216.811V105.866H223.881V144.576H217.511V150.876H197.701ZM245.017 138.206V131.906H238.717V112.866H232.347V105.866H238.717V93.1957H245.717V105.866H264.897V112.866H245.717V131.206H264.197V124.836H271.267V131.906H264.897V138.206H245.017ZM283.971 138.206V131.906H277.601V112.236H283.971V105.866H303.711V112.236H310.151V119.166H303.011V112.866H284.671V118.466H297.411V125.536H284.671V131.206H303.011V124.766H310.151V131.836H303.711V138.206H283.971ZM345.3 138.206V100.266H339.7V106.566H332.63V99.5657H339V93.1957H358.74V99.5657H365.18V106.566H358.04V100.266H352.44V138.206H345.3ZM371.527 138.206V93.1957H378.597V112.236H384.197V105.866H397.637V112.236H404.077V138.206H396.937V112.866H384.897V119.166H378.597V138.206H371.527ZM417.545 138.206V131.906H411.175V112.236H417.545V105.866H437.285V112.236H443.725V119.166H436.585V112.866H418.245V118.466H430.985V125.536H418.245V131.206H436.585V124.766H443.725V131.836H437.285V138.206H417.545ZM466.204 138.206V93.1957H492.314V99.5657H498.754V106.566H491.614V100.266H473.274V112.236H486.014V119.166H473.274V138.206H466.204ZM504.417 138.206V93.1957H511.487V138.206H504.417ZM524.938 138.206V131.906H518.568V112.236H524.938V105.866H544.678V112.236H551.118V131.206H557.488V138.206H550.418V131.906H544.678V138.206H524.938ZM525.638 131.206H543.978V112.866H525.638V131.206ZM563.822 138.206V105.866H583.632V112.236H589.232V105.866H602.742V112.236H609.042V138.206H602.042V112.866H589.932V138.206H582.932V112.866H570.892V138.206H563.822ZM623.17 138.206V131.906H616.8V112.236H623.17V105.866H642.91V112.236H649.35V119.166H642.21V112.866H623.87V118.466H636.61V125.536H623.87V131.206H642.21V124.766H649.35V131.836H642.91V138.206H623.17Z" fill="#BC2239"/>
<path d="M476.731 -4.78196e-06L476.731 23.9638C476.731 50.0111 496.728 71.6951 522.69 73.8002L579.031 78.3687C591.539 79.383 604.126 78.0338 616.135 74.3917L705.084 47.4154L806.939 9.65872" stroke="#FFF6EF" stroke-width="5" stroke-dasharray="10 10"/>
</svg>
